<?xml version="1.0" encoding="utf-8"?>
<!-- Generator: Adobe Illustrator 16.0.0, SVG Export Plug-In . SVG Version: 6.00 Build 0)  -->
<!DOCTYPE svg PUBLIC "-//W3C//DTD SVG 1.1//EN" "http://www.w3.org/Graphics/SVG/1.1/DTD/svg11.dtd">
<svg version="1.1" id="Layer_1" xmlns="http://www.w3.org/2000/svg" xmlns:xlink="http://www.w3.org/1999/xlink" x="0px" y="0px"
	 width="959px" height="593px" viewBox="0 0 959 593" enable-background="new 0 0 959 593" xml:space="preserve">
<g id="hi">
	<title>Hawaii</title>
	<path id="HI" fill="#9999CC" stroke="#666666" d="M233.087,519.311l1.94-3.558l2.263-0.323l0.324,0.81l-2.103,3.071H233.087z
		 M243.272,515.592l6.144,2.586l2.102-0.322l1.616-3.881l-0.646-3.395l-4.203-0.485l-4.042,1.778L243.272,515.592z M273.988,525.614
		l3.718,5.495l2.425-0.322l1.132-0.484l1.455,1.293l3.718-0.162l0.97-1.453l-2.91-1.778l-1.94-3.72l-2.102-3.557l-5.82,2.91
		L273.988,525.614z M294.195,534.506l1.293-1.939l4.688,0.971l0.647-0.485l6.143,0.646l-0.323,1.293l-2.587,1.455l-4.365-0.323
		L294.195,534.506L294.195,534.506z M299.53,539.679l1.939,3.88l3.072-1.132l0.323-1.616l-1.617-2.102l-3.718-0.323V539.679
		L299.53,539.679z M306.481,538.547l2.264-2.909l4.688,2.425l4.365,1.131l4.365,2.75v1.938l-3.557,1.778l-4.85,0.97l-2.425-1.454
		L306.481,538.547z M323.133,554.066l1.617-1.293l3.395,1.615l7.598,3.558l3.395,2.102l1.617,2.425l1.94,4.365l4.042,2.587
		l-0.323,1.293l-3.88,3.233l-4.203,1.455l-1.455-0.646l-3.072,1.777l-2.425,3.232l-2.263,2.91l-1.778-0.162l-3.557-2.586
		l-0.323-4.525l0.646-2.426l-1.616-5.658l-2.103-1.777l-0.162-2.587l2.265-0.97l2.102-3.072l0.485-0.971l-1.617-1.777
		L323.133,554.066L323.133,554.066z"/>
</g>
<g id="ak">
	<title>Alaska</title>
	<path id="AK" fill="#CCCCFF" stroke="#646464" d="M158.077,453.675l-0.323,85.357l1.617,0.97l3.071,0.162l1.456-1.132h2.585
		l0.163,2.909l6.952,6.791l0.485,2.586l3.395-1.939l0.646-0.162l0.323-3.07l1.454-1.617l1.133-0.161l1.939-1.455l3.071,2.102
		l0.646,2.91l1.94,1.132l1.131,2.426l3.88,1.777l3.396,5.98l2.748,3.881l2.263,2.748l1.455,3.718l5.012,1.778l5.173,2.102
		l0.97,4.365l0.485,3.07l-0.97,3.396l-1.778,2.264l-1.617-0.809l-1.455-3.071l-2.748-1.455l-1.778-1.132l-0.809,0.81l1.455,2.748
		l0.162,3.719l-1.132,0.483l-1.939-1.938l-2.103-1.294l0.485,1.616l1.293,1.778l-0.81,0.81c0,0-0.808-0.324-1.292-0.972
		c-0.485-0.646-2.102-3.395-2.102-3.395l-0.97-2.265c0,0-0.323,1.295-0.97,0.972c-0.646-0.324-1.293-1.455-1.293-1.455l1.778-1.94
		l-1.455-1.455v-5.011h-0.808l-0.809,3.396l-1.131,0.484l-0.97-3.719l-0.646-3.718l-0.809-0.485l0.323,5.658v1.132l-1.455-1.294
		l-3.557-5.98l-2.102-0.484l-0.646-3.719l-1.617-2.909l-1.617-1.132v-2.265l2.102-1.293l-0.485-0.323l-2.587,0.646l-3.396-2.425
		l-2.587-2.91l-4.85-2.586l-4.042-2.587l1.293-3.233v-1.616l-1.778,1.616l-2.91,1.132l-3.718-1.132l-5.658-2.425h-5.496
		l-0.646,0.485l-6.466-3.882l-2.102-0.322l-2.748-5.819l-3.557,0.323l-3.557,1.455l0.484,4.525l1.132-2.909l0.97,0.323l-1.455,4.364
		l3.233-2.748l0.646,1.616l-3.88,4.365l-1.293-0.323l-0.485-1.94l-1.293-0.808l-1.293,1.131l-2.748-1.778l-3.072,2.103l-1.778,2.103
		l-3.395,2.103l-4.688-0.162l-0.485-2.102l3.718-0.646v-1.294l-2.263-0.646l0.97-2.424l2.263-3.881v-1.777l0.162-0.809l4.365-2.264
		l0.97,1.293h2.749l-1.293-2.586l-3.718-0.323l-5.011,2.748l-2.425,3.396l-1.778,2.587l-1.131,2.263l-4.203,1.455l-3.072,2.587
		l-0.323,1.616l2.263,0.971l0.809,2.102l-2.749,3.233l-6.466,4.203l-7.76,4.203l-2.103,1.131l-5.335,1.132l-5.335,2.264l1.778,1.293
		l-1.455,1.455l-0.485,1.133l-2.748-0.971l-3.232,0.161l-0.808,2.265h-0.97l0.324-2.427l-3.557,1.294l-2.91,0.971l-3.396-1.293
		l-2.91,1.938h-3.232l-2.103,1.294l-1.616,0.809l-2.102-0.323l-2.586-1.132l-2.263,0.646l-0.97,0.971l-1.617-1.133v-1.939
		l3.071-1.293l6.305,0.646l4.365-1.616l2.102-2.102l2.91-0.646l1.777-0.809l2.749,0.162l1.616,1.293l0.97-0.323l2.263-2.748
		l3.072-0.971l3.395-0.646l1.293-0.323l0.646,0.485h0.809l1.293-3.719l4.042-1.454l1.94-3.719l2.264-4.526l1.616-1.455l0.324-2.587
		l-1.617,1.294l-3.395,0.646l-0.646-2.425l-1.293-0.323l-0.97,0.97l-0.162,2.91l-1.454-0.162l-1.456-5.818l-1.293,1.293
		l-1.131-0.485l-0.323-1.939l-4.042,0.161l-2.102,1.132l-2.586-0.323l1.455-1.455l0.485-2.586l-0.646-1.939l1.455-0.97l1.293-0.162
		l-0.646-1.778V526.1l-0.97-0.971l-0.808,1.455H54.94l-1.456-1.293l-0.646-3.88l-2.102-3.558v-0.97l2.102-0.809l0.162-2.103
		l1.131-1.132l-0.808-0.483l-1.293,0.483l-1.131-2.748l0.97-5.012l4.527-3.232l2.585-1.616l1.94-3.719l2.748-1.294l2.587,1.132
		l0.323,2.426l2.425-0.323l3.233-2.425l1.616,0.646l0.97,0.646h1.617l2.263-1.294l0.808-4.363c0,0,0.324-2.91,0.97-3.396
		c0.646-0.483,0.971-0.97,0.971-0.97l-1.131-1.94l-2.588,0.81l-3.232,0.809l-1.94-0.484l-3.557-1.778l-5.012-0.161l-3.556-3.719
		l0.485-3.88l0.646-2.426l-2.102-1.777l-1.94-3.718l0.485-0.81l6.79-0.484H66.9l0.97,0.971h0.647l-0.162-1.617l3.88-0.646
		l2.586,0.323l1.455,1.131l-1.455,2.103l-0.485,1.455l2.748,1.616l5.012,1.777l1.778-0.97l-2.264-4.365l-0.971-3.231l0.971-0.809
		l-3.396-1.94l-0.485-1.132l0.485-1.616l-0.809-3.88l-2.91-4.688l-2.425-4.202l2.91-1.939h3.232l1.778,0.646l4.203-0.161
		l3.718-3.557l1.131-3.072l3.718-2.425l1.617,0.97l2.748-0.646l3.718-2.103l1.132-0.16l0.97,0.808l4.526-0.161l2.748-3.07h1.132
		l3.556,2.425l1.939,2.102l-0.484,1.131l0.646,1.132l1.617-1.615l3.88,0.322l0.323,3.719l1.94,1.455l7.112,0.646l6.306,4.203
		l1.455-0.97l5.172,2.587l2.103-0.646l1.939-0.809l4.851,1.94L158.077,453.675L158.077,453.675z M42.974,482.612l2.103,5.335
		l-0.162,0.97l-2.91-0.323l-1.778-4.041l-1.777-1.455h-2.426l-0.161-2.587l1.777-2.425l1.131,2.425l1.455,1.455L42.974,482.612z
		 M40.387,516.076l3.719,0.809l3.718,0.971l0.808,0.97l-1.616,3.719l-3.071-0.162l-3.396-3.557L40.387,516.076z M19.695,502.012
		l1.131,2.588l1.132,1.615l-1.132,0.809l-2.103-3.071v-1.939L19.695,502.012L19.695,502.012z M5.954,575.083l3.395-2.264l3.395-0.97
		l2.587,0.322l0.485,1.616l1.94,0.485l1.94-1.94l-0.323-1.616l2.748-0.646l2.91,2.586l-1.131,1.778l-4.365,1.132l-2.749-0.484
		l-3.718-1.132l-4.365,1.455l-1.617,0.322L5.954,575.083L5.954,575.083z M54.937,570.557l1.616,1.939l2.103-1.617l-1.455-1.293
		L54.937,570.557z M57.847,573.628l1.132-2.264l2.102,0.323l-0.809,1.939L57.847,573.628L57.847,573.628z M81.449,571.688
		l1.455,1.778l0.97-1.132l-0.808-1.939L81.449,571.688z M90.179,559.24l1.131,5.818l2.91,0.81l5.012-2.91l4.364-2.587l-1.616-2.425
		l0.485-2.425l-2.102,1.293l-2.91-0.809l1.617-1.132l1.939,0.81l3.88-1.778l0.485-1.455l-2.425-0.81l0.808-1.938l-2.748,1.938
		l-4.688,3.558l-4.851,2.909L90.179,559.24L90.179,559.24z M132.534,539.355l2.425-1.455l-0.97-1.778l-1.778,0.97L132.534,539.355z"
		/>
</g>
<g id="fl">
	<title>Florida</title>
	<path id="FL" fill="#0C0C3C" stroke="#666666" d="M759.816,439.143l2.266,7.318l3.73,9.743l5.334,9.376l3.719,6.305l4.85,5.496
		l4.041,3.719l1.617,2.909l-1.132,1.294l-0.81,1.293l2.91,7.438l2.91,2.91l2.587,5.335l3.556,5.818l4.526,8.245l1.294,7.598
		l0.484,11.964l0.646,1.778l-0.322,3.395l-2.427,1.294l0.323,1.938l-0.646,1.94l0.323,2.425l0.485,1.939l-2.748,3.232l-3.071,1.455
		l-3.88,0.161l-1.455,1.617l-2.425,0.97l-1.294-0.484l-1.131-0.971l-0.324-2.908l-0.809-3.396l-3.396-5.173l-3.556-2.264
		l-3.881-0.323l-0.809,1.294l-3.07-4.365l-0.647-3.557l-2.586-4.041l-1.778-1.132l-1.615,2.102l-1.778-0.322l-2.103-5.013
		l-2.91-3.88l-2.91-5.335l-2.586-3.071l-3.557-3.718l2.102-2.426l3.232-5.496l-0.161-1.616l-4.525-0.971l-1.617,0.646l0.323,0.646
		l2.587,0.97l-1.455,4.526l-0.81,0.484l-1.777-4.042l-1.293-4.85l-0.323-2.748l1.455-4.688v-9.537l-3.071-3.719l-1.294-3.07
		l-5.173-1.295l-1.939-0.646l-1.617-2.587l-3.395-1.616l-1.132-3.395l-2.748-0.972l-2.425-3.718l-4.203-1.455l-2.91-1.454h-2.587
		l-4.041,0.809l-0.162,1.938l0.81,0.972l-0.485,1.131l-3.071-0.161l-3.718,3.557l-3.558,1.939h-3.879l-3.233,1.294l-0.323-2.749
		l-1.616-1.938l-2.909-1.133l-1.617-1.455l-8.083-3.88l-7.599-1.778l-4.365,0.647l-5.98,0.484l-5.98,2.102l-3.479,0.613l-0.238-8.05
		l-2.587-1.94l-1.777-1.778l0.323-3.07l10.186-1.293l25.542-2.91l6.79-0.646l5.436,0.28l2.587,3.88l1.455,1.455l8.098,0.516
		l10.82-0.646l21.512-1.293l5.446-0.675l5.107,0.204l0.427,2.91l2.232,0.809l0.234-4.63l-1.527-4.173l1.309-1.439l5.555,0.454
		L759.816,439.143L759.816,439.143z M772.362,571.548l2.425-0.646l1.293-0.243l1.455-2.345l2.344-1.615l1.294,0.484l1.697,0.322
		l0.403,1.051l-3.476,1.213l-4.203,1.455l-2.345,1.213L772.362,571.548L772.362,571.548z M785.861,566.536l1.212,1.051l2.748-2.102
		l5.335-4.203l3.719-3.88l2.505-6.629l0.972-1.696l0.16-3.396l-0.728,0.484l-0.97,2.829l-1.455,4.606l-3.233,5.254l-4.364,4.203
		l-3.396,1.94L785.861,566.536L785.861,566.536z"/>
</g>
<g id="nh">
	<title>New Hampshire</title>
	<path id="NH" fill="#9999CC" stroke="#666666" d="M880.799,142.425l0.869-1.077l1.09-3.29l-2.543-0.914l-0.484-3.071l-3.879-1.132
		l-0.323-2.748l-7.275-23.441l-4.603-14.543l-0.896-0.005l-0.646,1.616l-0.647-0.485l-0.97-0.97l-1.455,1.939l-0.048,5.032
		l0.312,5.667l1.939,2.748v4.042l-3.719,5.063l-2.586,1.131v1.132l1.132,1.778v8.568l-0.81,9.215l-0.16,4.851l0.97,1.293
		l-0.162,4.526l-0.484,1.777l0.97,0.709l16.786-4.425l2.175-0.603l1.845-2.773L880.799,142.425L880.799,142.425z"/>
</g>
<g id="MI">
	<title>Michigan</title>
	<path id="MI-" fill="#333399" stroke="#646464" d="M697.859,177.237l-3.232-8.245l-2.264-9.053l-2.426-3.233l-2.586-1.778
		l-1.616,1.132l-3.88,1.778l-1.939,5.012l-2.748,3.718l-1.132,0.646l-1.455-0.646c0,0-2.587-1.455-2.425-2.103
		c0.16-0.646,0.484-5.012,0.484-5.012l3.396-1.293l0.808-3.395l0.647-2.586l2.425-1.617l-0.323-10.023l-1.616-2.263l-1.294-0.81
		l-0.809-2.102l0.809-0.808l1.616,0.323l0.162-1.617l-2.425-2.263l-1.294-2.586h-2.586l-4.526-1.455l-5.497-3.395h-2.748
		l-0.646,0.647l-0.97-0.484l-3.072-2.264l-2.909,1.778l-2.91,2.263l0.323,3.557l0.97,0.323l2.103,0.485l0.484,0.809l-2.587,0.809
		l-2.586,0.323l-1.455,1.778l-0.323,2.102l0.323,1.617l0.323,5.497l-3.557,2.103l-0.646-0.162v-4.203l1.293-2.425l0.646-2.425
		l-0.809-0.809l-1.939,0.809l-0.971,4.204l-2.748,1.131l-1.777,1.939l-0.162,0.97l0.646,0.81l-0.646,2.586l-2.264,0.485v1.132
		l0.809,2.425l-1.132,6.144l-1.616,4.042l0.646,4.688l0.484,1.131l-0.809,2.425l-0.323,0.81l-0.323,2.748l3.557,5.98l2.91,6.467
		l1.455,4.85l-0.809,4.688l-0.971,5.981l-2.425,5.173l-0.323,2.748l-3.26,3.085l4.409-0.162l21.418-2.264l7.278-0.987l0.097,1.667
		l6.853-1.213l10.298-1.503l3.854-0.461l0.138-0.587l0.162-1.455l2.103-3.718l2-1.738l-0.222-5.052l1.597-1.598l1.091-0.343
		l0.223-3.557l1.535-3.031l1.051,0.605l0.162,0.646l0.809,0.162l1.939-0.97L697.859,177.237L697.859,177.237z"/>
	<path id="SP-" fill="#333399" stroke="#646464" d="M581.619,82.06l1.829-2.059l2.172-0.8l5.373-3.887l2.286-0.571l0.457,0.457
		l-5.146,5.144l-3.313,1.943l-2.059,0.915L581.619,82.06L581.619,82.06z M667.794,114.187l0.646,2.506l3.233,0.162l1.293-1.211
		c0,0-0.081-1.456-0.403-1.617c-0.323-0.162-1.616-1.859-1.616-1.859l-2.184,0.242l-1.616,0.162l-0.323,1.132L667.794,114.187
		L667.794,114.187z M567.492,111.213l0.716-0.581l2.749-0.809l3.557-2.263v-0.97l0.646-0.646l5.98-0.971l2.426-1.939l4.363-2.103
		l0.162-1.293l1.939-2.91l1.777-0.808l1.295-1.777l2.263-2.264l4.364-2.425l4.688-0.485l1.131,1.132l-0.323,0.97l-3.718,0.97
		l-1.455,3.071l-2.264,0.809l-0.483,2.425l-2.426,3.233l-0.322,2.587l0.808,0.485l0.971-1.132l3.556-2.91l1.295,1.293h2.263
		l3.233,0.97l1.455,1.132l1.454,3.071l2.748,2.749l3.88-0.162l1.455-0.97l1.616,1.293l1.617,0.484l1.293-0.808h1.132l1.616-0.97
		l4.042-3.557l3.395-1.131l6.629-0.323l4.525-1.939l2.587-1.293l1.455,0.162v5.657l0.484,0.323l2.909,0.809l1.94-0.485l6.144-1.617
		l1.132-1.131l1.455,0.485v6.95l3.232,3.072l1.294,0.646l1.293,0.97l-1.293,0.323l-0.81-0.323l-3.718-0.485l-2.103,0.647
		l-2.264-0.162l-3.233,1.455h-1.777l-5.819-1.293l-5.173,0.162l-1.939,2.586l-6.951,0.646l-2.426,0.809l-1.132,3.071l-1.293,1.131
		l-0.485-0.162l-1.455-1.617l-4.525,2.425h-0.646l-1.132-1.616l-0.809,0.162l-1.939,4.365l-0.97,4.042l-3.182,7.001l-1.178-1.035
		l-1.371-1.03l-1.94-10.289l-3.544-1.37l-2.053-2.286l-12.12-2.743l-2.855-1.03l-8.229-2.173l-7.891-1.143L567.492,111.213
		L567.492,111.213z"/>
</g>
<g id="vt">
	<title>Vermont</title>
	<path id="VT" fill="#CCCCFF" stroke="#646464" d="M844.484,154.058l0.315-5.346l-2.891-10.784l-0.646-0.323l-2.909-1.293
		l0.809-2.909l-0.809-2.103l-2.7-4.64l0.97-3.88l-0.809-5.173l-2.424-6.465l-0.807-4.923l26.419-6.731l0.31,5.521l1.916,2.742v4.042
		l-3.707,5.059l-2.586,1.143l-0.012,1.121l1.311,1.52l-0.312,8.098l-0.608,9.259l-0.229,5.557l0.97,1.293l-0.16,4.57l-0.485,1.69
		l1.015,0.727l-7.438,1.507L844.484,154.058L844.484,154.058z"/>
</g>
<g id="me">
	<title>Maine</title>
	<path id="ME" fill="#9999CC" stroke="#666666" d="M922.84,78.831l1.939,2.103l2.264,3.717v1.94l-2.102,4.688l-1.939,0.646
		l-3.396,3.071l-4.85,5.497c0,0-0.646,0-1.293,0c-0.646,0-0.971-2.102-0.971-2.102l-1.778,0.162l-0.97,1.455l-2.425,1.455
		l-0.97,1.455l1.615,1.455l-0.484,0.646l-0.484,2.749l-1.939-0.162v-1.617l-0.323-1.293l-1.454,0.323l-1.778-3.233l-2.102,1.293
		l1.293,1.455l0.323,1.132l-0.81,1.293l0.323,3.072l0.162,1.617l-1.616,2.586l-2.91,0.484l-0.323,2.91l-5.335,3.071l-1.293,0.484
		l-1.616-1.455l-3.071,3.556l0.97,3.233l-1.455,1.293l-0.161,4.365l-1.124,6.259l-2.462-1.155l-0.485-3.072l-3.879-1.131
		l-0.324-2.749l-7.273-23.441l-4.698-14.64l1.42-0.118l1.515,0.41v-2.587l1.309-4.496l2.587-4.688l1.455-4.041l-1.94-2.426v-5.98
		l0.81-0.97l0.81-2.75l-0.162-1.455l-0.162-4.85l1.777-4.85l2.91-8.893l2.102-4.203h1.293l1.295,0.162v1.132l1.293,2.263
		l2.748,0.646l0.809-0.808v-0.97l4.041-2.91l1.778-1.778l1.455,0.162l5.98,2.425l1.94,0.97l9.053,29.907h5.981l0.809,1.94
		l0.161,4.85l2.91,2.263h0.809l0.161-0.485l-0.483-1.132L922.84,78.831L922.84,78.831z M901.908,108.978l1.535-1.535l1.375,1.051
		l0.564,2.425l-1.697,0.889L901.908,108.978z M908.617,103.078l1.777,1.858c0,0,1.293,0.082,1.293-0.241
		c0-0.323,0.242-2.021,0.242-2.021l0.891-0.808l-0.81-1.778l-2.021,0.729L908.617,103.078z"/>
</g>
<g id="ri">
	<title>Rhode Island</title>
	<path id="RI" fill="#9999CC" stroke="#666666" d="M874.07,178.896l-3.696-14.956l6.271-1.845l2.19,1.927l3.306,4.32l2.688,4.402
		l-2.999,1.625l-1.294-0.162l-1.131,1.778l-2.427,1.939L874.07,178.896L874.07,178.896z"/>
</g>
<g id="ny">
	<title>New York</title>
	<path id="NY" fill="#0C0C3C" stroke="#666666" d="M830.38,188.746l-1.132-0.97l-2.587-0.162l-2.263-1.94l-1.631-6.129l-3.459,0.09
		l-2.443-2.708l-19.387,4.383l-43,8.729l-7.53,1.229l-0.738-6.469l1.429-1.125l1.293-1.132l0.971-1.617l1.777-1.131l1.94-1.778
		l0.483-1.617l2.103-2.748l1.132-0.97l-0.16-0.97l-1.295-3.072l-1.777-0.161l-1.939-6.144l2.91-1.778l4.363-1.454l4.043-1.294
		l3.231-0.484l6.306-0.162l1.939,1.293l1.616,0.162l2.103-1.293l2.586-1.131l5.174-0.485l2.102-1.778l1.778-3.232l1.616-1.94h2.103
		l1.938-1.131l0.162-2.264l-1.455-2.102l-0.322-1.455l1.132-2.102v-1.455h-1.778l-1.777-0.809l-0.81-1.131l-0.162-2.587l5.82-5.496
		l0.646-0.809l1.455-2.91l2.91-4.526l2.748-3.718l2.102-2.425l2.416-1.826l3.08-1.246l5.497-1.293l3.232,0.162l4.526-1.455
		l7.564-2.071l0.521,4.979l2.425,6.467l0.808,5.173l-0.97,3.88l2.587,4.526l0.808,2.103l-0.808,2.909l2.91,1.293l0.646,0.323
		l3.071,10.993l-0.536,5.06l-0.485,10.831l0.81,5.497l0.808,3.558l1.455,7.273v8.083l-1.131,2.264l1.839,1.992l0.797,1.679
		l-1.939,1.777l0.323,1.293l1.293-0.324l1.455-1.293l2.264-2.587l1.132-0.646l1.616,0.646l2.264,0.162l7.921-3.88l2.91-2.749
		l1.293-1.455l4.203,1.616l-3.396,3.557l-3.879,2.91l-7.113,5.334l-2.586,0.97l-5.82,1.94l-4.041,1.131l-1.175-0.533l-0.244-3.688
		l0.485-2.749l-0.162-2.102l-2.813-1.699l-4.526-0.97l-3.879-1.131L830.38,188.746L830.38,188.746z"/>
</g>
<g id="pa">
	<title>Pennsylvania</title>
	<path id="PA" fill="#000066" stroke="#646464" d="M825.124,224.692l1.308-0.271l2.33-1.253l1.213-2.482l1.615-2.264l3.233-3.07
		v-0.81l-2.425-1.617l-3.558-2.425l-0.97-2.586l-2.748-0.323l-0.162-1.132l-0.809-2.748l2.264-1.132l0.162-2.425l-1.294-1.293
		l0.162-1.616l1.938-3.072v-3.071l2.698-2.646l-0.921-0.675l-2.523-0.193l-2.295-1.94l-1.55-6.116l-3.505,0.101l-2.455-2.704
		l-18.091,4.198l-43.002,8.729l-8.893,1.455l-0.62-6.521l-5.361,5.068l-1.294,0.485l-4.202,3.01l2.911,19.138l2.48,9.729
		l3.572,19.261l3.269-0.638l11.944-1.502l37.927-7.665l14.877-2.822l8.299-1.624l0.269-0.237l2.103-1.617L825.124,224.692
		L825.124,224.692z"/>
</g>
<path id="NJ" fill="#333399" stroke="#646464" d="M829.68,188.46l-2.322,2.734v3.072l-1.939,3.071l-0.162,1.617l1.294,1.293
	l-0.162,2.425l-2.263,1.132l0.809,2.748l0.161,1.132l2.748,0.323l0.97,2.586l3.558,2.425l2.425,1.617v0.809l-2.982,2.697
	l-1.617,2.263l-1.454,2.748l-2.263,1.293l-0.464,1.603l-0.241,1.212l-0.609,2.607l1.092,2.244l3.232,2.91l4.851,2.263l4.042,0.646
	l0.161,1.455l-0.808,0.97l0.322,2.748h0.809l2.102-2.425l0.809-4.85l2.748-4.042l3.072-6.467l1.131-5.496l-0.646-1.132l-0.161-9.376
	l-1.617-3.395l-1.132,0.808l-2.748,0.323l-0.484-0.484l1.132-0.971l2.102-1.939l0.063-1.095l-0.385-3.434l0.574-2.748l-0.118-1.969
	l-2.808-1.75l-5.092-1.176l-4.139-1.381L829.68,188.46L829.68,188.46z"/>
<path id="DE" fill="#CCCCFF" stroke="#646464" d="M825.626,228.279l0.368-2.147l0.375-1.691l-1.623,0.398l-1.615,0.469l-2.206,1.764
	l1.72,5.043l2.265,5.658l2.102,9.699l1.616,6.306l5.012-0.162l6.144-1.181l-2.265-7.388l-0.971,0.485l-3.557-2.425l-1.778-4.688
	l-1.94-3.557l-3.146-2.87l-0.864-2.098L825.626,228.279L825.626,228.279z"/>
<path id="MD" fill="#6666CC" stroke="#646464" d="M839.792,252.415l-6.009,1.204l-5.143,0.117l-1.845-6.922l-1.925-9.169
	l-2.573-6.188l-1.288-4.397l-7.506,1.622l-14.876,2.823l-37.451,7.551l1.132,5.013l0.97,5.658l0.323-0.323l2.102-2.426l2.264-2.617
	l2.426-0.615l1.454-1.455l1.778-2.586l1.293,0.646l2.91-0.323l2.587-2.102l2.007-1.453l1.846-0.484l1.645,1.13l2.91,1.455
	l1.938,1.778l1.214,1.536l4.121,1.698v2.91l5.496,1.293l1.146,0.542l1.411-2.028l2.883,1.97l-1.278,2.482l-0.765,3.985l-1.778,2.587
	v2.102l0.646,1.778l5.064,1.355l4.311-0.062l3.071,0.97l2.103,0.323l0.971-2.102l-1.455-2.102v-1.777l-2.425-2.103l-2.103-5.497
	l1.293-5.334l-0.162-2.102l-1.293-1.293c0,0,1.455-1.617,1.455-2.263c0-0.646,0.485-2.102,0.485-2.102l1.938-1.293l1.94-1.617
	l0.484,0.97l-1.455,1.617l-1.293,3.718l0.323,1.131l1.777,0.323l0.485,5.497l-2.103,0.97l0.323,3.557l0.484-0.162l1.132-1.94
	l1.616,1.778l-1.616,1.293l-0.323,3.395l2.587,3.395l3.881,0.485l1.615-0.809l3.236,4.183l1.357,0.537l6.654-2.798l2.008-4.023
	L839.792,252.415L839.792,252.415z M823.822,261.443l1.132,2.506l0.161,1.778l1.132,1.858c0,0,0.89-0.889,0.89-1.212
	s-0.728-3.071-0.728-3.071l-0.728-2.344L823.822,261.443L823.822,261.443z"/>
<path id="VA" fill="#333399" stroke="#646464" d="M831.639,266.069l-0.144-1.947l6.453-2.55l-0.771,3.218l-2.92,3.779l-0.418,4.586
	l0.462,3.391l-1.828,4.979l-2.164,1.916l-1.471-4.641l0.446-5.449l1.587-4.183L831.639,266.069L831.639,266.069z M834.979,294.37
	l-58.175,12.575l-37.427,5.279l-6.679-0.375l-2.585,1.926l-7.34,0.222l-8.381,0.978l-10.916,1.614l10.47-5.61l-0.013-2.074
	l1.52-2.146l10.554-11.501l3.947,4.478l3.783,0.965l2.543-1.141l2.237-1.313l2.537,1.344l3.913-1.428l1.876-4.557l2.603,0.54
	l2.854-2.131l1.799,0.493l2.827-3.676l0.35-2.083l-0.964-1.276l1.002-1.867l5.274-12.277l0.616-5.735l1.229-0.522l2.18,2.442
	l3.937-0.301l1.929-7.574l2.795-0.561l1.05-2.741l2.58-2.347l2.771-5.695l0.086-5.066l9.82,3.822
	c0.682,0.34,0.833-5.049,0.833-5.049l3.653,1.598l0.066,2.938l5.785,1.299l2.133,1.176l1.659,2.057l-0.653,3.648l-1.947,2.591
	l0.109,2.06l0.59,1.853l4.979,1.269l4.451,0.04l3.068,0.958l1.943,0.31l0.715,3.088l3.19,0.402l0.866,1.2l-0.438,4.689l1.375,1.104
	l-0.479,1.931l1.229,0.79l-0.223,1.385l-2.693-0.095l0.089,1.615l2.281,1.543l0.121,1.412l1.773,1.786l0.49,2.524l-2.553,1.381
	l1.572,1.495l5.801-1.686L834.979,294.37L834.979,294.37z"/>
<path id="WV" fill="#9999CC" stroke="#666666" d="M761.186,238.967l1.112,4.944l1.083,6.032l2.131-2.581l2.264-3.071l2.537-0.616
	l1.455-1.455l1.778-2.586l1.445,0.646l2.909-0.323l2.587-2.102l2.007-1.453l1.846-0.485l1.305,1.017l3.644,1.822l1.938,1.778
	l1.375,1.293l-0.763,5.555l-5.835-2.542l-4.245-1.622l-0.101,5.178l-2.748,5.538l-2.53,2.427l-1.19,2.75l-2.645,0.5l-0.898,3.602
	l-1.043,3.95l-3.968,0.34l-2.323-2.438l-1.071,0.559l-0.634,5.47l-1.35,3.535l-4.959,10.955l0.896,1.161l-0.205,1.908l-2.809,3.885
	l-1.81-0.544l-2.969,2.16l-2.542-0.572l-1.999,4.556c0,0-3.261,1.43-3.923,1.367c-0.161-0.015-2.471-1.248-2.471-1.248l-2.336,1.379
	l-2.41,1.045l-3.744-0.89l-1.121-1.169l-2.192-3.021l-3.144-1.988l-1.711-3.624l-4.284-3.469l-0.646-2.264l-2.587-1.455
	l-0.808-1.616l-0.243-5.255l2.183-0.081l1.94-0.808l0.161-2.748l1.616-1.455l0.162-5.012l0.97-3.88l1.294-0.646l1.293,1.132
	l0.484,1.778l1.778-0.97l0.484-1.617l-1.132-1.778v-2.425l0.971-1.293l2.263-3.395l1.294-1.455l2.103,0.484l2.263-1.617l3.071-3.395
	l2.264-3.88l0.323-5.658l0.484-5.012v-4.688l-1.132-3.071l0.97-1.455l1.283-1.293l3.492,19.826l4.631-0.75L761.186,238.967
	L761.186,238.967z"/>
<path id="OH" fill="#000066" stroke="#646464" d="M735.325,193.328l-6.095,4.054l-3.879,2.263l-3.396,3.719l-4.042,3.88
	l-3.232,0.808l-2.91,0.485l-5.496,2.587l-2.103,0.162l-3.395-3.072l-5.175,0.646l-2.586-1.455l-2.381-1.352l-4.893,0.704
	l-10.186,1.617l-11.207,2.186l1.293,14.629l1.778,13.741l2.587,23.44l0.565,4.832l4.122-0.129l2.425-0.809l3.364,1.503l2.07,4.365
	l5.139-0.017l1.893,2.119l1.762-0.065l2.537-1.341l2.506,0.371l5.42,0.482l1.728-2.133l2.347-1.293l2.07-0.681l0.646,2.749
	l1.777,0.97l3.477,2.344l2.183-0.081l1.333-0.491l0.186-2.763l1.584-1.455l0.101-4.792l1.022-4.108l1.301-0.602l1.32,1.147
	l0.538,1.697l1.72-1.038l0.438-1.46l-1.117-1.903l0.066-2.314l0.749-1.072l2.152-3.307l1.051-1.543l2.102,0.485l2.264-1.617
	l3.071-3.395l2.771-4.079l0.319-5.056l0.485-5.012l-0.178-5.307l-0.954-2.896l0.351-1.189l1.806-1.75l-2.289-9.047L735.325,193.328
	L735.325,193.328z"/>
<path id="IN" fill="#333399" stroke="#646464" d="M619.568,299.971l0.065-2.856l0.485-4.527l2.263-2.91l1.778-3.88l2.587-4.203
	l-0.485-5.819l-1.777-2.748l-0.323-3.233l0.809-5.497l-0.485-6.951l-1.293-16.004l-1.293-15.358l-0.971-11.72l3.071,0.89l1.454,0.97
	l1.132-0.323l2.103-1.94l2.829-1.617l5.093-0.162l21.985-2.263l5.576-0.533l1.503,15.956l4.251,36.842l0.599,5.771l-0.371,2.264
	l1.229,1.795l0.098,1.373l-2.521,1.6l-3.539,1.552l-3.202,0.549l-0.599,4.867l-4.575,3.313l-2.796,4.01l0.322,2.376l-0.58,1.535
	h-3.327l-1.585-1.617l-2.493,1.262l-2.685,1.503l0.162,3.055l-1.193,0.258l-0.469-1.019l-2.166-1.503l-3.25,1.341l-1.553,3.006
	l-1.438-0.81l-1.455-1.599l-4.465,0.485l-5.593,0.97L619.568,299.971L619.568,299.971z"/>
<path id="IL" fill="#000066" stroke="#646464" d="M619.541,300.342l0.031-3.229l0.566-4.646l2.334-2.916l1.865-4.075l2.233-3.996
	l-0.371-5.252l-2.006-3.542l-0.097-3.347l0.694-5.27l-0.825-7.179l-1.065-15.777l-1.294-15.017l-0.922-11.64l-0.272-0.921
	l-0.81-2.587l-1.293-3.718l-1.615-1.778l-1.455-2.586l-0.233-5.489l-45.797,2.599l0.229,2.372l2.285,0.686l0.916,1.144l0.456,1.829
	l3.888,3.43l0.686,2.287l-0.686,3.429l-1.829,3.658l-0.687,2.515l-2.287,1.829l-1.828,0.686l-5.258,1.372l-0.687,1.829l-0.687,2.058
	l0.687,1.372l1.829,1.601l-0.229,4.115l-1.827,1.601l-0.688,1.6v2.744l-1.829,0.457l-1.6,1.143l-0.229,1.372l0.229,2.058
	l-1.716,1.314l-1.028,2.801l0.458,3.658l2.286,7.315l7.314,7.544l5.487,3.658l-0.229,4.344l0.914,1.372l6.4,0.458l2.743,1.372
	l-0.687,3.658l-2.285,5.944l-0.687,3.2l2.286,3.886l6.4,5.26l4.572,0.687l2.059,5.029l2.058,3.2l-0.914,2.973l1.601,4.115
	l1.828,2.058l1.414-0.881l0.908-2.075l2.213-1.747l2.131-0.614l2.604,1.181l3.628,1.376l1.188-0.298l0.199-2.259l-1.287-2.412
	l0.305-2.377l1.839-1.348l3.021-0.811l1.261-0.459l-0.612-1.387l-0.791-2.354l1.433-0.979L619.541,300.342L619.541,300.342z"/>
<path id="CT" fill="#6666CC" stroke="#646464" d="M874.068,178.863l-3.678-14.879l-4.72,0.92l-21.229,4.743l1,3.226l1.455,7.275
	l0.178,8.967l-1.221,2.175l1.922,1.933l4.271-3.906l3.556-3.233l1.94-2.102l0.81,0.646l2.748-1.455l5.172-1.132L874.068,178.863
	L874.068,178.863z"/>
<path id="WI" fill="#6666CC" stroke="#646464" d="M615.066,197.369l-0.067-3.157l-1.179-4.526l-0.646-6.144l-1.132-2.425l0.97-3.072
	l0.809-2.91l1.455-2.586l-0.646-3.395l-0.646-3.558l0.485-1.777l1.939-2.426l0.161-2.748l-0.809-1.293l0.646-2.585l-0.452-4.172
	l2.748-5.658l2.909-6.79l0.162-2.263l-0.322-0.97l-0.81,0.485l-4.202,6.305l-2.748,4.042l-1.94,1.778l-0.81,2.263l-1.953,0.808
	l-1.133,1.94l-1.455-0.323l-0.162-1.777l1.295-2.426l2.102-4.688l1.778-1.617l0.989-2.358l-2.561-1.9l-1.975-10.367l-3.549-1.342
	l-1.944-2.309l-12.13-2.722l-2.876-1.012l-8.214-2.167l-7.918-1.159l-3.766-5.13l-0.75,0.554l-1.197-0.162l-0.646-1.131
	l-1.334,0.296l-1.132,0.162l-1.778,0.97l-0.97-0.646l0.646-1.94l1.939-3.071l1.132-1.132l-1.938-1.455l-2.103,0.809l-2.91,1.939
	l-7.437,3.233l-2.91,0.646l-2.909-0.485l-0.981-0.878l-2.116,2.835l-0.229,2.744v8.458l-1.144,1.601l-5.259,3.886l-2.285,5.944
	l0.457,0.229l2.515,2.059l0.687,3.201l-1.83,3.201v3.887l0.459,6.63l2.972,2.972h3.43l1.829,3.201l3.43,0.458l3.887,5.715
	l7.087,4.115l2.058,2.744l0.915,7.43l0.687,3.315l2.285,1.601l0.229,1.372l-2.058,3.429l0.229,3.201l2.516,3.887l2.515,1.144
	l2.972,0.458l1.344,1.38L615.066,197.369L615.066,197.369z"/>
<path id="NC" fill="#333399" stroke="#646464" d="M834.98,294.315l2.086,4.917l3.557,6.467l2.425,2.425l0.646,2.264l-2.425,0.161
	l0.809,0.646l-0.323,4.203l-2.587,1.293l-0.646,2.103l-1.293,2.91l-3.719,1.616l-2.425-0.323l-1.455-0.162l-1.616-1.293l0.323,1.293
	v0.972h1.939l0.809,1.293l-1.938,6.305h4.203l0.646,1.615l2.263-2.263l1.294-0.485l-1.939,3.558l-3.071,4.85h-1.293l-1.132-0.483
	l-2.748,0.646l-5.174,2.425l-6.466,5.336l-3.396,4.688l-1.939,6.467l-0.484,2.425l-4.688,0.485L799.768,362l-9.947-8.202
	l-12.61-7.598l-2.909-0.81l-12.609,1.455l-4.276,0.75l-1.616-3.232l-2.971-2.116l-16.489,0.483l-7.274,0.81l-9.054,4.526
	l-6.143,2.587l-21.179,2.586l0.5-4.054l1.778-1.455l2.748-0.646l0.647-3.719l4.203-2.748l3.879-1.455l4.203-3.557l4.364-2.103
	l0.646-3.071l3.88-3.88l0.646-0.161c0,0,0,1.131,0.809,1.131s1.939,0.323,1.939,0.323l2.264-3.556l2.102-0.646l2.264,0.323
	l1.616-3.557l2.91-2.587l0.485-2.103l0.188-3.647l4.276-0.022l7.198-0.854l15.757-2.253l15.137-2.087l21.642-4.72l19.982-4.259
	l11.177-2.406L834.98,294.315L834.98,294.315z M839.252,327.521l2.587-2.506l3.152-2.587l1.534-0.646l0.162-2.021l-0.646-6.144
	l-1.455-2.345l-0.646-1.858l0.728-0.242l2.748,5.496l0.403,4.446l-0.161,3.395l-3.396,1.536l-2.828,2.425l-1.133,1.213
	L839.252,327.521L839.252,327.521z"/>
<g id="dc_1_">
	<title>Washington, D.C.</title>
	<path id="DC" fill="#CCCCFF" stroke="#646464" d="M805.818,250.844l-1.857-1.824l-1.232-0.686l1.443-2.022l2.889,1.948
		L805.818,250.844L805.818,250.844z"/>
	<circle id="dc" fill="#CCCCFF" stroke="#646464" cx="805.818" cy="250.844" r="6"/>
</g>
<path id="MA" fill="#333399" stroke="#646464" d="M899.623,173.254l2.172-0.686l0.458-1.714l1.028,0.114l1.029,2.286l-1.259,0.457
	l-3.887,0.115L899.623,173.254L899.623,173.254z M890.25,174.054l2.286-2.629h1.601l1.829,1.486l-2.401,1.029l-2.172,1.029
	L890.25,174.054L890.25,174.054z M855.451,152.066l17.646-4.642l2.265-0.646l1.914-2.796l3.735-1.664l2.89,4.413l-2.426,5.173
	l-0.322,1.455l1.939,2.587l1.133-0.81h1.777l2.264,2.588l3.879,5.98l3.558,0.485l2.264-0.97l1.778-1.778l-0.809-2.748l-2.103-1.617
	l-1.455,0.809l-0.97-1.293l0.484-0.485l2.102-0.162l1.777,0.808l1.94,2.425l0.97,2.91l0.323,2.425l-4.203,1.455l-3.88,1.94
	l-3.88,4.525l-1.938,1.456v-0.971l2.424-1.455l0.484-1.778l-0.808-3.072l-2.91,1.455l-0.81,1.455l0.485,2.264l-2.065,1l-2.747-4.527
	l-3.396-4.365l-2.069-1.813l-6.533,1.876l-5.092,1.051l-20.677,4.592l-0.668-4.768l0.647-10.589l4.289-0.889L855.451,152.066
	L855.451,152.066z"/>
<path id="TN" fill="#333399" stroke="#646464" d="M696.678,318.254l-51.893,5.012l-15.76,1.778l-4.621,0.513l-3.869-0.026
	l-0.221,4.101l-8.187,0.264l-6.951,0.646l-8.091-0.124l-1.413,7.073l-1.696,5.479l-3.293,2.751l-1.35,4.381l-0.323,2.586
	l-4.041,2.265l1.455,3.557l-0.971,4.364l-0.968,0.79l108.158-10.407l0.402-3.955l1.811-1.49l2.834-0.75l0.673-3.717l4.099-2.705
	l4.047-1.494l4.084-3.569l4.438-2.025l0.521-3.066l4.064-3.984l0.551-0.114c0,0,0.031,1.133,0.84,1.133
	c0.81,0,1.94,0.354,1.94,0.354l2.263-3.588l2.07-0.646l2.274,0.295l1.6-3.532l2.955-2.645l0.422-1.938l0.309-3.711l-2.146-0.2
	l-2.603,2.028l-6.992,0.028l-18.359,2.388L696.678,318.254L696.678,318.254z"/>
<path id="AR" fill="#9999CC" stroke="#666666" d="M593.825,343.053l-3.98,0.717l-5.112-0.634l0.422-1.603l2.979-2.566l0.943-3.656
	l-1.828-2.972l-78.418,2.515l1.602,6.858v8.23l1.37,10.974l0.229,37.838l2.286,1.942l2.972-1.371l2.743,1.143l0.681,6.573
	l55.621-1.141l1.146-2.09l-0.286-3.551l-1.826-2.972l1.6-1.485l-1.6-2.512l0.685-2.51l1.368-5.605l2.519-2.063l-0.686-2.284
	l3.657-5.372l2.744-1.368l-0.113-1.493l-0.346-1.826l2.855-5.599l2.403-1.257l0.384-3.428l1.771-1.241l-3.145-0.484l-1.342-4.011
	l2.804-2.377l0.551-2.02l1.279-4.047L593.825,343.053L593.825,343.053z"/>
<path id="MO" fill="#333399" stroke="#646464" d="M558.439,248.113l-2.521-3.087l-1.144-2.286l-64.356,2.399l-2.286,0.114
	l1.258,2.515l-0.229,2.286l2.516,3.888l3.086,4.114l3.088,2.743l2.16,0.229l1.496,0.915v2.972l-1.829,1.602l-0.457,2.285l2.059,3.43
	l2.515,2.972l2.516,1.829l1.371,11.66l0.314,36.072l0.229,4.688l0.457,5.383l22.435-0.866l23.206-0.687l20.805-0.801l11.654-0.23
	l2.17,3.427l-0.686,3.308l-3.087,2.402l-0.573,1.838l5.38,0.457l3.895-0.687l1.718-5.493l0.651-5.855l2.099-2.557l2.597-1.486
	l0.051-3.051l1.017-1.937l-1.693-2.544l-1.331,0.984l-1.993-2.228l-1.285-4.76l0.803-2.519l-1.944-3.428l-1.831-4.576l-4.799-0.8
	l-6.969-5.599l-1.72-4.113l0.8-3.201l2.06-6.058l0.459-2.863l-1.949-1.032l-6.854-0.797l-1.028-1.712l-0.111-4.23l-5.487-3.431
	l-6.976-7.771l-2.286-7.316l-0.229-4.226L558.439,248.113L558.439,248.113z"/>
<path id="GA" fill="#333399" stroke="#646464" d="M672.292,355.552v2.184l0.162,2.102l0.646,3.396l3.396,7.922l2.426,9.86
	l1.454,6.144l1.617,4.85l1.455,6.952l2.102,6.305l2.586,3.396l0.485,3.395l1.94,0.81l0.16,2.102l-1.777,4.851l-0.484,3.232
	l-0.162,1.94l1.616,4.364l0.323,5.334l-0.809,2.426l0.646,0.809l1.455,0.809l0.203,3.219l2.233,3.35l2.251,2.162l7.921,0.161
	l10.819-0.646l21.513-1.293l5.446-0.675l4.577,0.028l0.161,2.909l2.587,0.809l0.323-4.365l-1.617-4.525l1.132-1.616l5.819,0.809
	l4.979,0.317l-0.775-6.299l2.264-10.022l1.455-4.204l-0.485-2.586l3.335-6.244l-0.511-1.352l-1.913,0.704l-2.587-1.293l-0.646-2.103
	l-1.293-3.557l-2.265-2.102l-2.586-0.646l-1.617-4.852l-2.925-6.334l-4.203-1.939l-2.102-1.939l-1.293-2.586l-2.103-1.94
	l-2.264-1.293l-2.263-2.91l-3.072-2.263l-4.526-1.778l-0.485-1.455l-2.424-2.91l-0.484-1.455l-3.396-4.971l-3.52,0.101l-3.756-2.356
	l-1.418-1.293l-0.322-1.778l0.87-1.939l2.227-1.109l-0.634-2.098L672.292,355.552L672.292,355.552z"/>
<path id="SC" fill="#6666CC" stroke="#646464" d="M764.943,408.165l-1.777,0.97l-2.586-1.294l-0.646-2.102l-1.293-3.558
	l-2.264-2.102l-2.587-0.646l-1.616-4.85l-2.749-5.98l-4.203-1.94l-2.102-1.938l-1.293-2.588l-2.103-1.938l-2.264-1.293l-2.263-2.91
	l-3.071-2.265l-4.527-1.777l-0.483-1.455l-2.425-2.909l-0.485-1.455l-3.396-5.173l-3.396,0.161l-4.041-2.425l-1.293-1.293
	l-0.324-1.778l0.81-1.94l2.264-0.97l-0.511-2.289l5.768-2.337l9.115-4.589l7.774-0.809l16.114-0.423l2.638,1.877l1.681,3.358
	l4.302-0.608l12.61-1.455l2.909,0.808l12.609,7.599l10.107,8.121l-5.422,5.459l-2.586,6.144l-0.484,6.305l-1.617,0.81l-1.131,2.748
	l-2.426,0.646l-2.103,3.557l-2.747,2.748l-2.264,3.396l-1.617,0.808l-3.557,3.396l-2.909,0.16l0.97,3.233l-5.012,5.496
	L764.943,408.165L764.943,408.165z"/>
<path id="KY" fill="#6666CC" stroke="#646464" d="M725.994,295.271l-2.293,2.401l-3.578,3.994l-4.925,5.465l-1.216,1.716
	l-0.063,2.103l-4.38,2.164l-5.658,3.396l-7.23,1.8l-51.868,4.897l-15.761,1.778l-4.621,0.513l-3.867-0.027l-0.227,4.22l-8.181,0.146
	l-6.951,0.646l-7.987-0.06l1.207-1.319l2.5-1.541l0.229-3.201l0.914-1.828l-1.606-2.539l0.803-1.907l2.263-1.778l2.103-0.646
	l2.748,1.293l3.557,1.294l1.132-0.323l0.162-2.264l-1.293-2.425l0.323-2.264l1.938-1.455l2.587-0.646l1.616-0.647l-0.81-1.777
	l-0.646-1.939l1.507-0.996c0.003-0.037,1.254-3.521,1.238-3.658l3.054-1.479l5.319-0.97l4.494-0.485l1.393,1.627l1.528,0.871
	l1.591-3.108l3.188-1.283l2.205,1.483l0.41,0.999l1.174-0.264l-0.162-2.953l3.132-1.749l2.146-1.074l1.529,1.661l3.317-0.044
	l0.589-1.571l-0.368-2.263l2.601-3.999l4.777-3.438l0.705-4.835l2.926-0.456l3.791-1.646l2.443-1.708l-0.198-1.565l-1.143-1.455
	l0.564-2.995l4.186-0.118l2.301-0.746l3.348,1.429l2.055,4.365l5.133,0.011l2.051,2.208l1.615-0.146l2.602-1.278l5.237,0.573
	l2.575,0.218l1.688-2.056l2.617-1.426l1.882-0.707l0.647,2.836l2.043,1.058l2.643,2.083l0.117,5.673l0.809,1.572l2.59,1.557
	l0.771,2.294l4.16,3.438l1.806,3.623L725.994,295.271L725.994,295.271z"/>
<path id="AL" fill="#6666CC" stroke="#646464" d="M631.307,460.416l-1.49-14.322l-2.748-18.752l0.162-14.063l0.808-31.039
	l-0.161-16.651l0.165-6.419l44.483-3.619l-0.146,2.183l0.161,2.103l0.646,3.396l3.396,7.92l2.425,9.861l1.455,6.145l1.616,4.85
	l1.455,6.951l2.102,6.306l2.587,3.396l0.484,3.395l1.94,0.809l0.16,2.103l-1.776,4.851l-0.485,3.232l-0.162,1.939l1.617,4.364
	l0.323,5.335l-0.81,2.426l0.646,0.809l1.455,0.809l0.328,2.89l-5.599-0.354l-6.79,0.647l-25.541,2.909l-10.412,1.406l-0.222,2.877
	l1.778,1.778l2.586,1.94l0.581,7.936l-5.542,2.572l-2.748-0.323l2.748-1.938v-0.972l-3.071-5.979l-2.264-0.647l-1.455,4.365
	l-1.293,2.748l-0.646-0.161h-2.748V460.416z"/>
<path id="LA" fill="#6666CC" stroke="#646464" d="M607.967,459.161l-3.283-3.166l1.01-5.5l-0.661-0.894l-9.263,1.006l-25.027,0.459
	l-0.686-2.395l0.913-8.456l3.315-5.944l5.031-8.691l-0.574-2.398l1.257-0.681l0.459-1.952l-2.286-2.056l-0.111-1.942l-1.83-4.346
	l-0.147-6.339l-55.474,0.924l0.027,9.573l0.688,9.374l0.686,3.887l2.516,4.115l0.914,5.028l4.345,5.487l0.229,3.2l0.687,0.688
	l-0.687,8.459l-2.972,5.028l1.6,2.058l-0.686,2.516l-0.686,7.316l-1.373,3.199l0.123,3.617l4.687-1.521l12.113,0.207l10.347,3.558
	l6.467,1.132l3.719-1.455l3.232,1.133l3.232,0.97l0.809-2.103l-3.232-1.132l-2.587,0.485l-2.747-1.617c0,0,0.16-1.293,0.808-1.455
	c0.646-0.161,3.071-0.97,3.071-0.97l1.777,1.454l1.778-0.97l3.233,0.646l1.454,2.425l0.323,2.264l4.526,0.323l1.778,1.778
	L580,487.105l-1.294,0.81l1.617,1.616l8.405,3.557l3.558-1.293l0.97-2.425l2.586-0.647l1.778-1.453l1.294,0.97l0.808,2.909
	l-2.263,0.809l0.646,0.646l3.395-1.293l2.264-3.396l0.81-0.485l-2.103-0.322l0.809-1.616l-0.161-1.455l2.102-0.485l1.132-1.293
	l0.646,0.809c0,0-0.162,3.072,0.646,3.072c0.808,0,4.202,0.646,4.202,0.646l4.042,1.938l0.971,1.455h2.908l1.133,0.971l2.264-3.071
	v-1.455h-1.293l-3.396-2.748l-5.818-0.81l-3.233-2.263l1.132-2.747l2.264,0.322l0.162-0.646l-1.778-0.971v-0.483h3.233l1.777-3.072
	l-1.294-1.938l-0.323-2.748l-1.455,0.16l-1.938,2.103l-0.646,2.587l-3.071-0.646l-0.971-1.777l1.778-1.94l1.903-3.444l-1.062-2.412
	L607.967,459.161L607.967,459.161z"/>
<path id="MS" fill="#9999CC" stroke="#666666" d="M631.559,459.345l-0.254,1.257h-5.173l-1.455-0.81l-2.102-0.323l-6.79,1.94
	l-1.778-0.81l-2.587,4.203l-1.104,0.778l-1.122-2.488l-1.145-3.887l-3.43-3.2l1.144-5.545l-0.686-0.914l-1.829,0.229l-7.918,0.872
	l-24.547,0.375l-0.771-2.227l0.873-8.377l3.117-5.673l5.227-9.146l-0.444-2.433l1.237-0.656l0.436-1.92l-2.316-2.079l-0.115-2.142
	l-1.836-4.121l-0.108-5.963l1.327-2.48l-0.225-3.416l-1.77-3.081l1.525-1.482l-1.569-2.5l0.457-1.652l1.578-6.525l2.485-2.036
	l-0.643-2.367l3.658-5.302l2.832-1.356l-0.223-1.676l-0.287-1.681l2.875-5.567l2.347-1.231l0.151-0.894l37.344-3.881l0.186,6.282
	l0.161,16.651l-0.808,31.038l-0.162,14.064l2.748,18.753L631.559,459.345L631.559,459.345z"/>
<path id="IA" fill="#6666CC" stroke="#646464" d="M569.191,199.584l0.265,2.786l2.224,0.577l0.954,1.225l0.5,1.855l3.793,3.358
	l0.687,2.393l-0.676,3.424l-1.582,3.232l-0.799,2.742l-2.173,1.603l-1.716,0.572l-5.579,1.86l-1.392,3.85l0.729,1.371l1.842,1.684
	l-0.283,4.037l-1.764,1.538l-0.771,1.643l0.127,2.776l-1.886,0.458l-1.627,1.104l-0.277,1.354l0.277,2.114l-1.551,1.116
	l-2.471-3.133l-1.263-2.45l-65.735,2.515l-0.918,0.166l-2.053-4.516l-0.229-6.63l-1.601-4.115l-0.686-5.258l-2.287-3.658
	l-0.914-4.801l-2.743-7.545l-1.144-5.373l-1.372-2.172l-1.601-2.743l1.954-4.844l1.372-5.715l-2.744-2.058l-0.457-2.744l0.914-2.515
	h1.715l82.654-1.27l0.834,4.183l2.253,1.561l0.256,1.423l-2.029,3.39l0.19,3.206l2.515,3.798l2.527,1.294l3.079,0.503
	L569.191,199.584z"/>
<path id="MN" fill="#6666CC" stroke="#646464" d="M475.238,128.824l-0.458-8.459l-1.829-7.316l-1.828-13.489l-0.458-9.832
	l-1.829-3.429l-1.6-5.03V70.983l0.686-3.887l-1.82-5.452l30.133,0.035l0.322-8.245l0.646-0.162l2.264,0.485l1.939,0.81l0.809,5.497
	l1.455,6.143l1.616,1.617h4.85l0.324,1.455l6.305,0.323v2.102h4.851l0.322-1.293l1.133-1.132l2.263-0.646l1.293,0.97h2.91
	l3.88,2.587l5.335,2.425l2.425,0.485l0.485-0.971l1.455-0.485l0.483,2.91l2.588,1.293l0.484-0.484l1.293,0.162v2.102l2.586,0.97
	h3.072l1.616-0.809l3.232-3.233l2.587-0.484l0.809,1.777l0.484,1.293h0.971l0.97-0.808l8.892-0.323l1.778,3.071h0.646l0.715-1.084
	l4.438-0.371l-0.61,2.28l-3.939,1.837l-9.245,4.061l-4.774,2.007l-3.071,2.587l-2.425,3.557l-2.265,3.879l-1.778,0.809l-4.525,5.011
	l-1.293,0.162l-4.328,2.757l-2.463,3.205l-0.229,3.19l0.094,8.043l-1.375,1.688l-5.082,3.76l-2.229,5.982l2.871,2.233l0.681,3.227
	l-1.854,3.239l0.171,3.748l0.369,6.73l3.027,3.002h3.328l1.893,3.133l3.379,0.503l3.859,5.671l7.087,4.117l2.144,2.875l0.671,6.439
	l-81.212,1.145l-0.338-35.677l-0.457-2.973l-4.115-3.429l-1.143-1.829v-1.601l2.058-1.601l1.371-1.372L475.238,128.824
	L475.238,128.824z"/>
<path id="OK" fill="#6666CC" stroke="#646464" d="M380.343,320.821l-16.684-1.273l-0.88,10.953l20.465,1.156l32.056,1.304
	l-2.335,24.419l-0.457,17.832l0.229,1.601l4.344,3.658l2.058,1.144l0.688-0.229l0.686-2.058l1.372,1.829h2.059v-1.371l2.743,1.371
	l-0.457,3.887l4.114,0.229l2.516,1.145l4.114,0.686l2.516,1.83l2.286-2.059l3.43,0.686l2.515,3.431h0.914v2.286l2.286,0.686
	l2.287-2.286l1.828,0.688h2.516l0.914,2.515l6.302,2.079l1.371-0.687l1.829-4.115h1.144l1.144,2.058l4.115,0.688l3.658,1.37
	l2.972,0.916l1.829-0.916l0.687-2.515h4.344l2.058,0.915l2.744-2.058h1.143l0.688,1.6h4.114l1.601-2.058l1.829,0.458l2.058,2.515
	l3.201,1.829l3.2,0.914l1.941,1.119l-0.39-37.218l-1.372-10.975l-0.16-8.872l-1.439-6.538l-0.778-7.18l-0.067-3.814l-12.138,0.317
	l-46.409-0.457l-45.039-2.058L380.343,320.821L380.343,320.821z"/>
<path id="TX" fill="#0C0C3C" stroke="#666666" d="M361.464,330.573l22.691,1.086l31.093,1.144l-2.335,23.456l-0.297,18.153
	l0.067,2.082l4.345,3.818l1.985,1.446l1.186-0.561l0.373-1.817l1.141,1.805l2.111,0.043l-0.003-1.446l1.67,0.968l1.139,0.408
	l-0.358,3.968l4.088,0.094l2.926,1.197l3.955,0.524l2.381,2.08l2.124-2.076l3.726,0.613l2.221,3.227l1.076,0.32l-0.16,1.966
	l2.213,0.792l2.33-2.055l2.134,0.614l2.229,0.035l0.935,2.437l6.328,2.113l1.593-0.767l1.489-4.179h0.341l0.905,0.082l1.229,2.068
	l3.93,0.665l3.337,1.123l3.426,1.196l1.842-0.977l0.714-2.515l4.453,0.044l1.809,0.931l2.8-2.105l1.104,0.044l0.851,1.605h4.056
	l1.519-2.028l1.868,0.407l1.945,2.402l3.521,2.044l2.859,0.811l1.514,0.8l2.446,1.997l3.043-1.327l2.691,1.139l0.563,6.105
	l-0.04,9.703l0.687,9.533l0.703,3.604l2.674,4.42l0.898,4.95l4.216,5.538l0.196,3.146l0.746,0.786l-0.729,8.38l-2.873,5.006
	l1.533,2.153l-0.631,2.338l-0.669,7.404l-1.505,3.338l0.295,3.503l-5.665,1.585l-9.86,4.526l-0.971,1.938l-2.586,1.94l-2.102,1.455
	l-1.295,0.808l-5.657,5.335l-2.748,2.103l-5.335,3.232l-5.658,2.425l-6.305,3.396l-1.778,1.454l-5.819,3.557l-3.395,0.646
	l-3.88,5.497l-4.042,0.322l-0.971,1.939l2.264,1.939l-1.454,5.496l-1.294,4.526l-1.132,3.88l-0.809,4.526l0.809,2.426l1.778,6.951
	l0.971,6.143l1.777,2.749l-0.971,1.454l-3.071,1.94l-5.657-3.881l-5.496-1.131l-1.295,0.484l-3.231-0.646l-4.203-3.071l-5.174-1.131
	l-7.599-3.396l-2.102-3.88l-1.294-6.466l-3.231-1.94l-0.646-2.263l0.646-0.647l0.322-3.395l-1.294-0.646l-0.646-0.97l1.294-4.364
	l-1.617-2.265l-3.233-1.293l-3.395-4.364l-3.557-6.629l-4.203-2.586l0.162-1.939l-5.336-12.286l-0.809-4.203l-1.778-1.939
	l-0.163-1.454l-5.98-5.336l-2.586-3.07v-1.133l-2.586-2.102l-6.79-1.132l-7.436-0.646l-3.072-2.265l-4.526,1.778l-3.557,1.455
	l-2.263,3.232l-0.97,3.719l-4.365,6.144l-2.425,2.425l-2.586-0.97l-1.778-1.132l-1.94-0.646l-3.88-2.264v-0.646l-1.778-1.938
	l-5.173-2.103l-7.437-7.76L320,469.189v-8.083l-3.233-6.468l-0.485-2.748l-1.617-0.97l-1.132-2.102l-5.011-2.103l-1.293-1.615
	l-7.113-7.922l-1.293-3.233l-4.688-2.263l-1.455-4.365l-2.586-2.91l-1.94-0.484l-0.649-4.678l8.002,0.686l29.035,2.743l29.035,1.602
	l2.233-19.462l3.886-55.555l1.601-18.748l1.372,0.028 M461.693,560.208l-0.565-7.113l-2.748-7.193l-0.565-7.032l1.535-8.244
	l3.313-6.871l3.477-5.415l3.152-3.557l0.646,0.242l-4.77,6.628l-4.364,6.548l-2.021,6.628L458.46,540l0.89,6.145l2.586,7.192
	l0.485,5.174l0.162,1.454L461.693,560.208L461.693,560.208z"/>
<path id="NM" fill="#9999CC" stroke="#646464" d="M288.152,424.013l-0.775-4.747l8.645,0.524l30.172,2.946l27.268,1.688
	l2.215-18.707l3.857-55.876l1.738-19.39l1.571,0.129l0.825-11.163l-104.004-10.636l-17.497,120.435l15.46,1.989l1.293-10.022
	L288.152,424.013L288.152,424.013z"/>
<path id="KS" fill="#9999CC" stroke="#666666" d="M507.881,324.38l-12.618,0.205l-46.09-0.457l-44.557-2.058l-24.63-1.258
	l3.894-64.596l22.083,0.675l40.289,0.841l44.302,0.988h5.097l2.185,2.162l2.019-0.021l1.64,1.012l-0.063,3.009l-1.828,1.726
	l-0.332,2.232l1.844,3.402l2.951,3.195l2.328,1.614l1.301,11.241L507.881,324.38L507.881,324.38z"/>
<path id="NE" fill="#9999CC" stroke="#666666" d="M486.098,240.701l3.23,7.02l-0.128,2.302l3.459,5.495l2.719,3.151h-5.049
	l-43.482-0.939l-40.786-0.89l-22.253-0.784l1.073-21.328l-32.317-2.919l4.344-44.01l15.546,1.029l20.119,1.143l17.833,1.144
	l23.775,1.143l10.746-0.457l2.059,2.286l4.801,2.973l1.143,0.914l4.345-1.372l3.887-0.458l2.744-0.229l1.828,1.372l4.058,1.601
	l2.973,1.601l0.457,1.601l0.914,2.058h1.829l0.798,0.046l0.896,4.682l2.92,8.468l0.572,3.757l2.523,3.774l0.569,5.114l1.606,4.241
	L486.098,240.701L486.098,240.701z"/>
<path id="SD" fill="#CCCCFF" stroke="#646464" d="M476.447,204.024l-0.049-0.581l-2.896-4.847l1.86-4.712l1.492-5.887l-2.781-2.08
	l-0.387-2.743l0.793-2.555l3.188,0.015l-0.123-5.006l-0.334-30.174l-0.617-3.769l-4.071-3.331l-0.983-1.677l-0.063-1.608
	l2.022-1.529l1.532-1.666l0.244-2.657l-58.256-1.6l-54.8-3.449l-5.325,63.691l14.589,0.904l19.951,1.206l17.743,0.928l23.777,1.304
	l11.982-0.425l1.966,2.246l5.194,3.253l0.765,0.723l4.541-1.453l6.541-0.615l1.675,1.336l4.205,1.596l2.945,1.636l0.397,1.484
	l1.04,2.241L476.447,204.024L476.447,204.024z"/>
<path id="ND" fill="#CCCCFF" stroke="#646464" d="M475.306,128.918l-0.614-8.434l-1.678-6.816l-1.892-13.024l-0.457-10.986
	l-1.74-3.077l-1.756-5.194l0.031-10.443l0.623-3.824l-1.834-5.468l-28.644-0.564l-18.591-0.646l-26.512-1.293l-22.946-2.134
	l-6.994,67.178l54.934,3.344L475.306,128.918L475.306,128.918z"/>
<path id="WY" fill="#CCCCFF" stroke="#646464" d="M360.376,143.276l-106.742-13.457l-14.083,88.458l113.265,13.585L360.376,143.276z
	"/>
<path id="MT" fill="#9999CC" stroke="#666666" d="M369.209,56.969l-30.674-2.808l-29.261-3.556l-29.26-4.042l-32.332-5.335
	l-18.429-3.395L196.529,30.9l-4.479,21.348l3.43,7.544l-1.372,4.572l1.829,4.572l3.201,1.373l4.621,10.77l2.695,3.176l0.458,1.143
	l3.429,1.144l0.457,2.058l-7.087,17.604v2.515l2.515,3.201h0.916l4.801-2.972l0.686-1.144l1.601,0.687L214,113.749l2.743,12.574
	l2.972,2.515l0.915,0.687l1.829,2.286L222,135.238l0.686,3.43l1.143,0.914l2.286-2.286h2.743l3.201,1.601l2.516-0.915h4.115
	l3.658,1.6l2.743-0.457l0.458-2.972l2.973-0.687l1.372,1.372l0.457,3.201l1.426,0.834l1.887-11.035l106.746,13.429L369.209,56.969
	L369.209,56.969z"/>
<path id="CO" fill="#6666CC" stroke="#646464" d="M380.032,320.965l4.903-86.325l-113.389-12.644l-12.213,87.939L380.032,320.965z"
	/>
<path id="ID" fill="#9999CC" stroke="#666666" d="M148.479,176.484l8.771-35.222l1.372-4.229l2.515-5.944l-1.257-2.286l-2.515,0.114
	l-0.801-1.029l0.458-1.143l0.343-3.086l4.458-5.487l1.829-0.458l1.144-1.143l0.571-3.201l0.915-0.686l3.887-5.831l3.886-4.344
	l0.229-3.771l-3.43-2.629l-1.535-4.401l13.625-63.342l13.518,2.527l-4.408,21.384l3.561,7.484l-1.581,4.661l1.97,4.641l3.138,1.255
	l3.834,9.557l3.514,4.437l0.507,1.143l3.341,1.145l0.369,2.097l-6.971,17.376l-0.165,2.565l2.631,3.321l0.905-0.049l4.911-3.025
	l0.678-1.095l1.562,0.659l-0.278,5.354l2.739,12.583l3.918,3.179l1.681,2.166l-0.717,4.083l1.066,2.808l1.062,1.091l2.479-2.352
	l2.848,0.049l2.919,1.335l2.78-0.682l3.794-0.16l3.979,1.6l2.744-0.297l0.496-3.037l2.934-0.765l1.26,1.516l0.441,2.945l1.424,1.213
	l-8.386,53.609C243.438,194.688,155.472,177.988,148.479,176.484L148.479,176.484z"/>
<path id="UT" fill="#9999CC" stroke="#666666" d="M259.499,310.105l-83.749-11.873l20.587-112.542l46.78,8.745l-1.485,10.631
	l-2.312,13.173l7.808,0.928l16.407,1.805l8.211,0.856L259.499,310.105z"/>
<path id="AZ" fill="#333399" stroke="#646464" d="M144.911,382.629l-2.627,2.158l-0.323,1.455l0.485,0.97l18.915,10.67l12.125,7.599
	l14.711,8.567l16.813,10.023l12.286,2.425l24.951,2.705l17.256-119.128l-83.736-11.917l-3.092,16.412l-1.605,0.016l-1.714,2.629
	l-2.516-0.114l-1.257-2.743l-2.743-0.343l-0.915-1.144h-0.915l-0.915,0.572l-1.942,1.027l-0.114,6.975l-0.229,1.714l-0.572,12.573
	l-1.486,2.172l-0.572,3.315l2.744,4.915l1.257,5.83l0.8,1.029l1.029,0.57l-0.114,2.286l-1.601,1.372l-3.429,1.715l-1.943,1.942
	l-1.486,3.658l-0.572,4.916l-2.858,2.743l-2.058,0.686l0.136,0.83l-0.457,1.715l0.457,0.8l3.658,0.571l-0.572,2.744l-1.486,2.172
	L144.911,382.629L144.911,382.629z"/>
<path id="NV" fill="#9999CC" stroke="#666666" d="M196.393,185.576l-23.639,128.822l-1.833,0.35l-1.573,2.406l-2.373,0.011
	l-1.472-2.743l-2.619-0.379l-0.771-1.107l-1.038-0.054l-2.778,1.646l-0.31,6.785l-0.362,5.776l-0.349,8.593l-1.447,2.09
	l-2.438-1.074l-69.08-104.201l18.989-67.585L196.393,185.576L196.393,185.576z"/>
<path id="OR" fill="#6666CC" stroke="#646464" d="M148.722,175.532l8.851-34.802l1.051-4.229l2.354-5.623l-0.615-1.163l-2.516-0.046
	l-1.281-1.67l0.457-1.464l0.503-3.247l4.458-5.487l1.83-1.1l1.143-1.143l1.486-3.565l4.047-5.669l3.564-3.862l0.229-3.451
	l-3.27-2.469l-1.784-4.643l-12.664-3.612l-15.089-3.543l-15.432,0.114l-0.458-1.372l-5.487,2.058l-4.458-0.572l-2.399-1.6
	l-1.258,0.686l-4.687-0.229l-1.715-1.372l-5.258-2.058l-0.8,0.114l-4.344-1.485l-1.942,1.829l-6.173-0.343l-5.944-4.115l0.686-0.8
	l0.229-7.772l-2.287-3.887l-4.115-0.572l-0.686-2.515l-2.354-0.468l-5.798,2.06l-2.263,6.466L61.3,78.932l-3.233,6.466
	l-5.011,14.064l-6.466,13.58l-8.083,12.609l-1.94,2.909l-0.809,8.568l0.386,12.08L148.722,175.532L148.722,175.532z"/>
<path id="WA" fill="#333399" stroke="#646464" d="M102.073,7.612l4.365,1.455l9.699,2.748l8.568,1.94l20.046,5.658l22.956,5.658
	l15.223,3.207l-13.632,63.586l-12.445-3.525l-15.508-3.571l-15.229,0.033l-0.456-1.345l-5.599,2.179l-4.595-0.736l-2.146-1.584
	l-1.313,0.658l-4.734-0.14l-1.699-1.35l-5.263-2.112l-0.735,0.147l-4.389-1.525l-1.893,1.817l-6.266-0.298L81.1,76.386l0.779-0.933
	L82,67.776l-2.282-3.841l-4.115-0.606l-0.678-2.511l-2.275-0.457l-3.555,1.229l-2.264-3.219l0.324-2.91l2.748-0.323l1.617-4.042
	l-2.587-1.132l0.162-3.718l4.365-0.646l-2.749-2.75l-1.455-7.113l0.646-2.91V24.91l-1.778-3.233l2.263-9.376l2.103,0.485l2.425,2.91
	l2.749,2.586l3.233,1.939l4.527,2.103l3.071,0.646l2.91,1.455l3.395,0.97l2.263-0.162V22.81l1.293-1.132l2.102-1.293l0.323,1.133
	l0.324,1.777L98.84,23.78l-0.323,2.102l1.778,1.455l1.132,2.425l0.646,1.94l1.455-0.162l0.162-1.293l-0.97-1.293l-0.484-3.233
	l0.808-1.777l-0.646-1.455v-2.263l1.777-3.558l-1.132-2.586l-2.425-4.85l0.322-0.81L102.073,7.612L102.073,7.612z M92.617,13.591
	l2.021-0.162l0.485,1.374l1.536-1.617h2.344l0.809,1.536l-1.536,1.698l0.646,0.808l-0.728,2.021l-1.374,0.404
	c0,0-0.89,0.081-0.89-0.242s1.455-2.587,1.455-2.587l-1.697-0.565l-0.323,1.455l-0.729,0.647l-1.536-2.264L92.617,13.591z"/>
<g id="ca">
	<title>California</title>
	<path id="CA" fill="#0C0C3C" stroke="#666666" d="M144.694,382.198l3.939-0.488l1.486-2.012l0.544-2.941l-3.551-0.59l-0.514-0.668
		l0.477-2.032l-0.159-0.59l1.923-0.62l3.042-2.832l0.582-4.995l1.38-3.401l1.943-2.166l3.519-1.591l1.654-1.604l0.069-2.108
		l-0.994-0.58l-1.023-1.071l-1.155-5.849l-2.685-4.83l0.566-3.506l-2.42-1.028L84.258,232.514l18.902-67.602l-67.08-15.698
		l-1.507,4.733l-0.162,7.437l-5.173,11.802l-3.072,2.585l-0.323,1.132l-1.778,0.808l-1.454,4.203l-0.81,3.233l2.749,4.203
		l1.616,4.203l1.132,3.558l-0.323,6.466l-1.778,3.072l-0.646,5.82l-0.97,3.718l1.777,3.881l2.748,4.526l2.264,4.851l1.293,4.042
		l-0.323,3.232l-0.323,0.485v2.102l5.658,6.305l-0.485,2.425l-0.646,2.263l-0.646,1.94l0.162,8.245l2.102,3.718l1.94,2.587
		l2.748,0.485l0.971,2.748l-1.132,3.557l-2.103,1.617h-1.131l-0.809,3.88l0.485,2.91l3.233,4.365l1.617,5.335l1.455,4.688
		l1.293,3.071l3.395,5.819l1.455,2.588l0.485,2.908l1.616,0.971v2.426l-0.809,1.938l-1.778,7.113l-0.485,1.938l2.426,2.75
		l4.203,0.483l4.526,1.778l3.88,2.102h2.91l2.91,3.071l2.587,4.851l1.131,2.264l3.88,2.102l4.85,0.809l1.455,2.103l0.646,3.233
		l-1.455,0.646l0.323,0.97l3.233,0.81l2.748,0.161l3.159-1.688l3.881,4.203l0.808,2.264l2.586,4.203l0.323,3.233v9.376l0.485,1.777
		l10.022,1.455l19.722,2.748L144.694,382.198L144.694,382.198z M56.559,338.48l1.293,1.537l-0.162,1.293l-3.233-0.082l-0.566-1.211
		l-0.646-1.455L56.559,338.48L56.559,338.48z M58.499,338.48l1.212-0.646l3.557,2.103l3.072,1.211l-0.889,0.647l-4.527-0.243
		l-1.616-1.615L58.499,338.48L58.499,338.48z M79.192,358.285l1.778,2.344l0.809,0.971l1.536,0.565l0.565-1.455l-0.97-1.778
		l-2.667-2.021l-1.051,0.161V358.285z M77.737,366.934l1.777,3.152l1.212,1.939l-1.455,0.242l-1.293-1.212
		c0,0-0.728-1.454-0.728-1.858s0-2.184,0-2.184L77.737,366.934L77.737,366.934z"/>
</g>
<path fill="none" stroke="#A9A9A9" stroke-width="2" d="M211,493v55l36,45 M0,425h144l67,68h86l53,54v46"/>
<rect x="867.686" y="366.188" fill="#0C0C3C" stroke="#000000" width="27.109" height="19.288"/>
<rect x="867.686" y="385.973" fill="#000066" stroke="#000000" width="27.109" height="19.289"/>
<rect x="867.686" y="405.668" fill="#333399" stroke="#000000" width="27.109" height="19.287"/>
<rect x="867.686" y="425.452" fill="#6666CC" stroke="#000000" width="27.109" height="19.288"/>
<rect x="867.686" y="444.74" fill="#9999CC" stroke="#000000" width="27.109" height="19.288"/>
<rect x="867.686" y="464.525" fill="#DCDCFF" stroke="#000000" width="27.109" height="19.287"/>
<text transform="matrix(1 0 0 1 901.9727 480.1621)" font-family="'MyriadPro-Regular'" font-size="12">0-1</text>
<text transform="matrix(1 0 0 1 901.9727 459.1621)" font-family="'MyriadPro-Regular'" font-size="12">1-3</text>
<text transform="matrix(1 0 0 1 901.9727 439.1621)" font-family="'MyriadPro-Regular'" font-size="12">3-6</text>
<text transform="matrix(1 0 0 1 901.9727 419.582)" font-family="'MyriadPro-Regular'" font-size="12">6-10</text>
<text transform="matrix(1 0 0 1 901.9727 397.7842)" font-family="'MyriadPro-Regular'" font-size="12">10-15</text>
<text transform="matrix(1 0 0 1 901.9727 377.8691)" font-family="'MyriadPro-Regular'" font-size="12">15+</text>
<text transform="matrix(1 0 0 1 842 505.4014)" font-family="'MyriadPro-Regular'" font-size="12">Millions of people</text>
</svg>
